<svg width="21" height="19" viewBox="0 0 21 19" fill="none" xmlns="http://www.w3.org/2000/svg">
<path d="M19.0312 0.5H1.96875C0.881426 0.5 0 1.50734 0 2.75V16.25C0 17.4927 0.881426 18.5 1.96875 18.5H19.0312C20.1186 18.5 21 17.4927 21 16.25V2.75C21 1.50734 20.1186 0.5 19.0312 0.5ZM19.0312 2.75V4.66273C18.1116 5.51862 16.6455 6.8495 13.5111 9.65445C12.8203 10.2754 11.4521 11.7672 10.5 11.7498C9.54811 11.7674 8.17938 10.2752 7.48892 9.65445C4.35504 6.84992 2.88853 5.51877 1.96875 4.66273V2.75H19.0312ZM1.96875 16.25V7.54991C2.90858 8.40542 4.24138 9.60594 6.27285 11.4239C7.16933 12.2304 8.73928 14.0108 10.5 14C12.2521 14.0108 13.8021 12.2563 14.7268 11.4243C16.7582 9.60636 18.0914 8.40552 19.0312 7.54995V16.25H1.96875Z" fill="#8391A1"/>
</svg>
